# xmcd
#
# Track frame offsets:
#	150
#	15104
#	32169
#	44403
#	59167
#	72219
#	90178
#	108106
#
# Disc length: 1712 seconds
# Revision: 1
# Processed by: cddbd v1.5.2PL0 Copyright (c) Steve Scherf et al.
# Submitted via: dBpowerAMP V12.0
#
DISCID=5a06ae08
DTITLE=The Higgins - Dreamers Like Us
DYEAR=2010
DGENRE=Country
TTITLE0=Dreamers Like Us
TTITLE1=Free Like Love
TTITLE2=All Cried Out
TTITLE3=Burn You Back
TTITLE4=Carry Me Away
TTITLE5=I Ride Alone
TTITLE6=Yours
TTITLE7=Where Does The Time Go
EXTD=
EXTT0=
EXTT1=
EXTT2=
EXTT3=
EXTT4=
EXTT5=
EXTT6=
EXTT7=
PLAYORDER=
